<svg id="Слой_1" data-name="Слой 1" xmlns="http://www.w3.org/2000/svg" viewBox="0 0 425.19 350.6"><defs><style>.cls-1{fill:#efa613;}.cls-2{fill:#ec8d14;}.cls-3{fill:#f5e767;}.cls-4{fill:#f2bc13;}.cls-5{fill:#f6db19;}.cls-6{fill:#efae13;}.cls-7{fill:#ed9613;}.cls-8{fill:#f0ad13;}.cls-9{fill:#f8d415;}.cls-10{fill:#f5e960;}.cls-11{fill:#040404;}.cls-12{fill:#f6e635;}.cls-13{fill:#ef8713;}.cls-14{fill:none;}.cls-15{fill:#020202;}</style></defs><title>sheep_icon</title><polygon class="cls-1" points="424.24 139.66 425.19 226.72 343.4 251.59 424.24 139.66"/><path class="cls-2" d="M425.76,227.27,330.58,323.4l-157.36-.47-44-33s-21.45-38.48-40.9-73.35c-4.68-8.4-9.24-16.59-13.36-24l-3.26-5.83c-4.29-5.84-7.16-12.54-10.24-18.38-2.52-4.5-4-7.13-4-7.13l15.3-7.17,42.57,63.61,58.36-48.31L257.4,288,344,252.14Z" transform="translate(-0.57 -0.55)"/><polygon class="cls-3" points="346.75 17.22 424.24 139.66 397.93 129.62 321.4 45.44 346.75 17.22"/><polygon class="cls-4" points="424.24 139.66 343.4 251.59 270.22 88.96 397.93 129.62 424.24 139.66"/><polygon class="cls-5" points="321.4 45.44 397.93 129.62 270.22 88.96 321.4 45.44"/><polygon class="cls-6" points="270.22 88.96 343.4 251.59 173.13 168.84 270.22 88.96"/><polygon class="cls-7" points="343.4 251.59 256.83 287.46 173.13 168.84 343.4 251.59"/><polygon class="cls-8" points="173.13 168.84 114.78 217.15 72.21 153.53 46.87 109.06 173.13 168.84"/><polygon class="cls-4" points="163.09 13.87 270.22 88.96 173.13 168.84 163.09 13.87"/><polygon class="cls-9" points="163.09 13.87 173.13 168.84 46.87 109.06 46.86 109.05 104.97 61.46 163.09 13.87"/><polygon class="cls-10" points="104.97 61.46 150.65 8.61 163.09 13.87 104.97 61.46"/><path class="cls-11" d="M75,192.6c4.12,7.38,8.68,15.57,13.36,24l-.42.23-7.29-5.33c-2.25-1.63-4.91-3.58-7.86-5.74C54,192.41,33,182.84,17.43,166c9.79-.35,20.31-3.22,29.72-3.58l10.32-1.13s1.46,2.63,4,7.13c3.08,5.84,6,12.54,10.24,18.38Z" transform="translate(-0.57 -0.55)"/><polygon class="cls-12" points="143.95 0 346.75 17.22 321.4 45.44 270.22 88.96 163.09 13.87 150.65 8.61 104.97 61.46 46.86 109.05 143.95 0"/><path class="cls-13" d="M47.43,109.61l25.34,44.48-15.3,7.17-10.32,1.13c-9.41.36-19.93,3.23-29.72,3.58,0,0,2-3.73,4.92-9.1,1.44-2.67,3.06-5.73,4.8-9,8.69-16.39,20.27-38.26,20.27-38.26Z" transform="translate(-0.57 -0.55)"/><path class="cls-11" d="M17.43,166C33,182.84,54,192.41,72.74,205.73c3,2.16,5.61,4.11,7.86,5.74l7.29,5.33c-4.94,2.1-10.46,4.8-16.27,7.55-2.92,1.37-5.91,2.74-8.94,4.06C44.44,237.37,15.74,246,4.26,224-6.26,203.89,8.09,182.84,17.43,166Z" transform="translate(-0.57 -0.55)"/><polygon class="cls-2" points="114.78 217.15 212.71 303.3 256.83 287.46 173.13 168.84 114.78 217.15"/><path class="cls-14" d="M173.22,322.93l34.92.11Z" transform="translate(-0.57 -0.55)"/><rect class="cls-15" x="172.61" y="322.06" width="34.92" height="28.22"/><path class="cls-14" d="M173.93,322.89l34.92.1Z" transform="translate(-0.57 -0.55)"/><rect class="cls-15" x="295.06" y="322.38" width="34.92" height="28.22"/></svg>